<svg xmlns="http://www.w3.org/2000/svg" width="46.695" height="48.696" viewBox="0 0 46.695 48.696"><g transform="translate(0 0)"><path d="M56.409,29.883a3.227,3.227,0,0,0-2.909-2.27V6.946a6.882,6.882,0,0,0-1.562-4.36l-.062-.08a6.866,6.866,0,0,0-9.664-.943q-.258.212-.494.449A6.812,6.812,0,0,0,39.73,6.3a.82.82,0,0,0-.027.192H38.08a2.435,2.435,0,0,0,0,4.87h4.87a2.435,2.435,0,1,0,0-4.87H41.344A5.237,5.237,0,0,1,50.276,3.16q.18.18.342.377l.066.081a5.245,5.245,0,0,1,1.193,3.328V27.594H14.543V24.348h5.681v.812a.812.812,0,0,0,1.623,0V23.536a.812.812,0,0,0-.812-.812h-4.87V20.29a.812.812,0,0,0-.812-.812H12.109a.812.812,0,0,0-.812.812v3.246a.812.812,0,0,0,.812.812h.812v3.266a3.263,3.263,0,0,0-2.1.932,3.217,3.217,0,0,0,1.32,5.374A15.427,15.427,0,0,0,27.529,48.7H38.891A15.427,15.427,0,0,0,54.279,33.919,3.227,3.227,0,0,0,56.409,29.883ZM42.949,8.116a.812.812,0,1,1,0,1.623H38.08a.812.812,0,0,1,0-1.623ZM12.92,21.1h1.623v1.623H12.92ZM38.891,47.073H27.529A13.816,13.816,0,0,1,13.755,34.087H52.665A13.816,13.816,0,0,1,38.891,47.073ZM53.3,32.464H13.117a1.623,1.623,0,1,1,0-3.246H53.3a1.623,1.623,0,0,1,0,3.246Z" transform="translate(-9.859 0)"/></g><g transform="translate(28.221 35.71)"><path d="M296.965,352a.812.812,0,0,0-.811.812,7.313,7.313,0,0,1-7.3,7.3.812.812,0,1,0,0,1.623,8.938,8.938,0,0,0,8.928-8.927A.812.812,0,0,0,296.965,352Z" transform="translate(-288.038 -352.002)"/></g><g transform="translate(26.598 12.986)"><path d="M272.85,128a.812.812,0,0,0-.812.812v6.493a.812.812,0,0,0,1.623,0v-6.493A.812.812,0,0,0,272.85,128Z" transform="translate(-272.038 -128.002)"/></g><g transform="translate(29.844 12.986)"><path d="M304.85,128a.812.812,0,0,0-.812.812v6.493a.812.812,0,0,0,1.623,0v-6.493A.812.812,0,0,0,304.85,128Z" transform="translate(-304.038 -128.002)"/></g><g transform="translate(33.091 12.986)"><path d="M336.85,128a.812.812,0,0,0-.812.812v6.493a.812.812,0,0,0,1.623,0v-6.493A.812.812,0,0,0,336.85,128Z" transform="translate(-336.038 -128.002)"/></g></svg>