<svg xmlns="http://www.w3.org/2000/svg" width="37.739" height="37.739" viewBox="0 0 37.739 37.739"><defs><style>.a{fill:#020202;}</style></defs><path class="a" d="M89.668,61.668l-7.182,0a.518.518,0,0,0-.367.884l2.7,2.7L66.068,84.109l-2.7-2.7a.518.518,0,0,0-.884.366v7.18a.517.517,0,0,0,.518.518l7.182,0a.518.518,0,0,0,.367-.884l-2.7-2.7L82.136,71.494,86.6,67.031l2.7,2.7a.518.518,0,0,0,.884-.366V62.186A.517.517,0,0,0,89.668,61.668Z" transform="translate(-57.489 -56.739)"/><path class="a" d="M34.781,0H2.958A2.958,2.958,0,0,0,0,2.958V34.781a2.958,2.958,0,0,0,2.958,2.958H34.781a2.958,2.958,0,0,0,2.958-2.958V2.958A2.958,2.958,0,0,0,34.781,0Zm.442,34.781a.443.443,0,0,1-.442.442H2.958a.443.443,0,0,1-.442-.442V2.958a.443.443,0,0,1,.442-.442H34.781a.443.443,0,0,1,.442.442V34.781Z"/></svg>