<svg xmlns="http://www.w3.org/2000/svg" width="175.057" height="50" viewBox="0 0 175.057 50">
  <g id="Group_1493" data-name="Group 1493" transform="translate(-65 -368.489)">
    <path id="Path_1317" data-name="Path 1317" d="M65,416.031V379.843l18.8-11.354,18.769,11.395v25.6H82.171Zm4.9-33.554v24.866l10.868-6.217h16.9V382.511l-13.875-8.548Z" transform="translate(0 0)" fill="#707070"/>
    <g id="Group_1491" data-name="Group 1491" transform="translate(108.98 379.894)" fill="#707070">
      <path id="Path_1318" data-name="Path 1318" d="M150.357,410.709h13.915l-1.773,4.325H145.784v-25.6h18.257l-1.773,4.325H150.357v6.222h10.724l-1.772,4.325h-8.952Z" transform="translate(-145.784 -389.439)"/>
      <path id="Path_1319" data-name="Path 1319" d="M207.449,404.346a6.441,6.441,0,0,1,2.57,2.508,6.968,6.968,0,0,1,.886,3.616l-.106,10.937h-4.255l.107-9.713a4.447,4.447,0,0,0-.948-3.093,3.465,3.465,0,0,0-2.738-1.09,4.384,4.384,0,0,0-2.154.514,3.575,3.575,0,0,0-1.445,1.471,4.592,4.592,0,0,0-.531,2.234v9.678h-4.254v-9.713a4.541,4.541,0,0,0-.957-3.093,3.438,3.438,0,0,0-2.73-1.09,4.383,4.383,0,0,0-2.154.514,3.573,3.573,0,0,0-1.445,1.471,4.593,4.593,0,0,0-.532,2.234v9.678H182.51v-18.1l4.219,1.79v.372a5.737,5.737,0,0,1,2.144-1.507,7.346,7.346,0,0,1,2.8-.514,7.693,7.693,0,0,1,3.386.735,6.41,6.41,0,0,1,2.481,2.083,6.31,6.31,0,0,1,2.561-2.092,8.66,8.66,0,0,1,3.643-.727A7.642,7.642,0,0,1,207.449,404.346Z" transform="translate(-162.516 -395.758)"/>
      <path id="Path_1320" data-name="Path 1320" d="M237.957,395.754l4.254-1.79v3.776l-4.254,1.79Zm0,5.088,4.254-1.79v17.92h-4.254Z" transform="translate(-187.777 -391.501)"/>
      <path id="Path_1321" data-name="Path 1321" d="M260.173,408.591a2.216,2.216,0,0,0-1.2-.683,6.589,6.589,0,0,0-1.905-.274,3.964,3.964,0,0,0-1.994.479,3.2,3.2,0,0,0-1.3,1.418,5.022,5.022,0,0,0-.479,2.269v9.607h-4.236V405.117l4.2-1.808v2.02a6.084,6.084,0,0,1,4.662-1.755,6.539,6.539,0,0,1,2.251.3Z" transform="translate(-192.835 -395.758)"/>
      <path id="Path_1322" data-name="Path 1322" d="M282.467,421.371v-1.808a6.578,6.578,0,0,1-4.91,1.932,8.282,8.282,0,0,1-7.391-4.4,9.217,9.217,0,0,1-1.117-4.538,9.475,9.475,0,0,1,1.1-4.538,8.141,8.141,0,0,1,3.066-3.226,8.281,8.281,0,0,1,4.343-1.169,7.361,7.361,0,0,1,2.738.5,6,6,0,0,1,2.171,1.471v-.284l4.148-1.808v17.867ZM275.4,408.183a4.444,4.444,0,0,0-1.675,1.773,5.935,5.935,0,0,0-.009,5.194,4.363,4.363,0,0,0,1.675,1.772v.018a4.514,4.514,0,0,0,2.429.638,4.641,4.641,0,0,0,2.419-.638,4.415,4.415,0,0,0,1.675-1.79,5.432,5.432,0,0,0,.6-2.588,5.56,5.56,0,0,0-.594-2.588,4.34,4.34,0,0,0-1.675-1.791,4.689,4.689,0,0,0-2.428-.638A4.641,4.641,0,0,0,275.4,408.183Z" transform="translate(-201.942 -395.847)"/>
      <path id="Path_1323" data-name="Path 1323" d="M315.572,416.614a8.928,8.928,0,0,1-3.918.9,6.156,6.156,0,0,1-4.741-1.746,7.259,7.259,0,0,1-1.622-5.114v-7.2h-3.456l1.826-3.9h1.631v-3.58l4.254-1.791v5.371h6.222l-1.825,3.9h-4.4v7.125a3.276,3.276,0,0,0,.629,2.154,2.211,2.211,0,0,0,1.8.753,6.636,6.636,0,0,0,3.6-1.312Z" transform="translate(-216.879 -391.604)"/>
      <path id="Path_1324" data-name="Path 1324" d="M340.183,404.7a7.643,7.643,0,0,1,2.88,3.208,10.009,10.009,0,0,1,1.028,4.662,11.348,11.348,0,0,1-.106,1.631H331.772a4.475,4.475,0,0,0,1.578,2.712,4.734,4.734,0,0,0,3.048.975,7.178,7.178,0,0,0,2.561-.487,7.7,7.7,0,0,0,2.313-1.374l2.11,3.013a9.638,9.638,0,0,1-3.209,1.933,11.721,11.721,0,0,1-3.988.638,9.1,9.1,0,0,1-4.547-1.134,8.019,8.019,0,0,1-3.146-3.209,9.767,9.767,0,0,1-1.1-4.679,9.984,9.984,0,0,1,1.072-4.671,7.748,7.748,0,0,1,3.023-3.2,8.609,8.609,0,0,1,4.466-1.152A7.933,7.933,0,0,1,340.183,404.7Zm-7.17,3.536a4.611,4.611,0,0,0-1.4,2.65h7.995a4.663,4.663,0,0,0-1.347-2.641,3.641,3.641,0,0,0-2.552-.922A3.947,3.947,0,0,0,333.013,408.239Z" transform="translate(-228.523 -395.876)"/>
      <path id="Path_1325" data-name="Path 1325" d="M360.283,416.5l.656-.16a7.516,7.516,0,0,0,2.4,1.223,10.51,10.51,0,0,0,3,.39,8.1,8.1,0,0,0,2-.222,3.475,3.475,0,0,0,1.347-.611,1.116,1.116,0,0,0,.479-.869q0-1.205-2.641-1.6l-1.737-.266a8.267,8.267,0,0,1-4.3-1.764,4.36,4.36,0,0,1-1.48-3.412,4.727,4.727,0,0,1,.966-2.915,6.089,6.089,0,0,1
,2.739-1.977,10.483,10.483,0,0,1,3.793-.656,13.807,13.807,0,0,1,5.743,1.153l-.071,4.289a10.169,10.169,0,0,0-2.686-1.259,9.655,9.655,0,0,0-2.863-.478,5.939,5.939,0,0,0-1.719.23,3.224,3.224,0,0,0-1.223.638h.017a1.1,1.1,0,0,0-.39.8,1,1,0,0,0,.549.9,6.291,6.291,0,0,0,1.95.576l1.72.3q5.92,1.027,5.92,5.211a4.566,4.566,0,0,1-1.072,2.987A6.7,6.7,0,0,1,370.368,421a12.229,12.229,0,0,1-4.183.656,14.129,14.129,0,0,1-3.2-.363,11.306,11.306,0,0,1-2.845-1.055l.053-3.581Z" transform="translate(-243.386 -395.921)"/>
    </g>
    <g id="Group_1492" data-name="Group 1492" transform="translate(107.961 409.354)" fill="#707070">
      <path id="Path_1326" data-name="Path 1326" d="M148.451,452.676a4.394,4.394,0,0,1-1.815-.369,4.532,4.532,0,0,1-1.426-.992,4.66,4.66,0,0,1-.941-1.413,4.569,4.569,0,0,1,.259-4.057,4.6,4.6,0,0,1,1.645-1.633,4.412,4.412,0,0,1,2.278-.606,4.5,4.5,0,0,1,3.249,1.372.222.222,0,0,1,.071.161.257.257,0,0,1-.068.166.21.21,0,0,1-.158.065h-.053a.181.181,0,0,1-.119-.065,4.114,4.114,0,0,0-1.3-.906,4.132,4.132,0,0,0-3.68.223,4.167,4.167,0,0,0-1.464,1.476,4.118,4.118,0,0,0,.009,4.1,4.14,4.14,0,0,0,1.476,1.467,4.115,4.115,0,0,0,3.659.214,4.115,4.115,0,0,0,1.3-.905.2.2,0,0,1,.081-.054.318.318,0,0,1,.091-.012.214.214,0,0,1,.155.063.237.237,0,0,1,.071.163.23.23,0,0,1-.071.167,4.506,4.506,0,0,1-3.249,1.372Z" transform="translate(-143.913 -443.576)"/>
      <path id="Path_1327" data-name="Path 1327" d="M166.769,452.676h-4.954a.227.227,0,0,1-.163-.065.22.22,0,0,1-.069-.167v-8.607a.219.219,0,0,1,.069-.166.227.227,0,0,1,.163-.065h4.954a.239.239,0,0,1,.167.065.215.215,0,0,1,.071.166.225.225,0,0,1-.068.164.232.232,0,0,1-.169.068h-4.722v3.57H165.8a.223.223,0,0,1,.163.069.23.23,0,0,1,.068.169.232.232,0,0,1-.231.232h-3.754v4.1h4.722a.23.23,0,0,1,.169.069.223.223,0,0,1,.068.163.216.216,0,0,1-.071.167A.239.239,0,0,1,166.769,452.676Z" transform="translate(-151.963 -443.576)"/>
      <path id="Path_1328" data-name="Path 1328" d="M180.762,452.676h-.011a.214.214,0,0,1-.087-.015.329.329,0,0,1-.074-.051l-5.346-8.007v7.84a.22.22,0,0,1-.069.167.236.236,0,0,1-.326,0,.22.22,0,0,1-.069-.167l.006-8.654a.219.219,0,0,1,.225-.184.206.206,0,0,1,.065.009l.065.027a.31.31,0,0,1,.036.03.361.361,0,0,1,.029.035l5.31,7.971v-7.841a.219.219,0,0,1,.069-.166.227.227,0,0,1,.163-.065.221.221,0,0,1,.166.068.229.229,0,0,1,.065.163v8.607a.237.237,0,0,1-.021.107.247.247,0,0,1-.08.083v.005h-.012a.185.185,0,0,1-.047.027A.161.161,0,0,1,180.762,452.676Z" transform="translate(-157.976 -443.576)"/>
      <path id="Path_1329" data-name="Path 1329" d="M192.358,452.682a.233.233,0,0,1-.232-.232v-8.375h-2.488a.217.217,0,0,1-.167-.071.242.242,0,0,1-.065-.167.233.233,0,0,1,.065-.16.216.216,0,0,1,.167-.071h5.441a.232.232,0,0,1,.231.231.235.235,0,0,1-.068.167.219.219,0,0,1-.163.071H192.59v8.375a.232.232,0,0,1-.231.232Z" transform="translate(-164.639 -443.576)"/>
      <path id="Path_1330" data-name="Path 1330" d="M209.564,452.676h-.018a.247.247,0,0,1-.149-.053l-4.1-3.54h-1.342v3.362a.22.22,0,0,1-.069.167.235.235,0,0,1-.4-.167v-8.607a.231.231,0,0,1,.065-.16.22.22,0,0,1,.172-.071h3.344a2.658,2.658,0,0,1,1.381.368,2.779,2.779,0,0,1,.989.992,2.772,2.772,0,0,1-.006,2.771,2.786,2.786,0,0,1-.995.984,2.665,2.665,0,0,1-1.369.362h-1.057l3.688,3.19a.225.225,0,0,1,.077.172.229.229,0,0,1-.059.161A.221.221,0,0,1,209.564,452.676Zm-2.494-4.057a2.191,2.191,0,0,0,1.146-.309,2.338,2.338,0,0,0,.823-.823,2.285,2.285,0,0,0,0-2.289,2.309,2.309,0,0,0-.826-.82,2.211,2.211,0,0,0-1.14-.3h-3.112v4.544Z" transform="translate(-171.055 -443.576)"/>
      <path id="Path_1331" data-name="Path 1331" d="M225.093,452.676a.29.29,0,0,1-.1-.027.245.245,0,0,1-.109-.116l-.992-2.406h-4.669l-.986,2.406a.244.244,0,0,1-.214.143.218.218,0,0,1-.163-.071.232.232,0,0,1-.069-.167.309.309,0,0,1,.012-.083l3.54-8.607a.245.245,0,0,1,.214-.143.228.228,0,0,1,.214.143l3.54,8.607a.26.26,0,0,1,.017.089.264.264,0,0,1-.027.107.241.241,0,0,1-.116.107A.247.247,0,0,1,225.093,452.676Zm-1.4-3.018-2.138-5.215-2.144,5.215Z" transform="translate(-177.569 -443.576)"/>
      <path id="Path_1332" data-name="Path 1332" d="M238.605,452.676h-4.051a.22.22,0,0,1-.166-.069.227.227,0,0,
1-.065-.163v-8.607a.229.229,0,0,1,.065-.163.221.221,0,0,1,.166-.068.227.227,0,0,1,.163.065.219.219,0,0,1,.069.166v8.375h3.819a.227.227,0,0,1,.163.065.236.236,0,0,1,0,.333A.227.227,0,0,1,238.605,452.676Z" transform="translate(-185.103 -443.576)"/>
      <path id="Path_1333" data-name="Path 1333" d="M252.547,452.682a.233.233,0,0,1-.231-.232v-8.613a.233.233,0,0,1,.231-.231h3.344a2.649,2.649,0,0,1,1.387.371,2.788,2.788,0,0,1,.986.991,2.783,2.783,0,0,1,0,2.762,2.757,2.757,0,0,1-.992.986,2.682,2.682,0,0,1-1.378.365h-3.112v3.368a.233.233,0,0,1-.232.232Zm3.344-4.063a2.192,2.192,0,0,0,1.15-.309,2.355,2.355,0,0,0,.819-.823,2.294,2.294,0,0,0,0-2.289,2.283,2.283,0,0,0-.823-.82,2.225,2.225,0,0,0-1.147-.3h-3.112v4.544Z" transform="translate(-193.3 -443.576)"/>
      <path id="Path_1334" data-name="Path 1334" d="M273.226,452.676h-.017a.246.246,0,0,1-.149-.053l-4.1-3.54h-1.343v3.362a.222.222,0,0,1-.068.167.235.235,0,0,1-.4-.167v-8.607a.231.231,0,0,1,.065-.16.221.221,0,0,1,.172-.071h3.344a2.655,2.655,0,0,1,1.381.368,2.776,2.776,0,0,1,.989.992,2.768,2.768,0,0,1-.006,2.771,2.782,2.782,0,0,1-.995.984,2.665,2.665,0,0,1-1.369.362h-1.057l3.688,3.19a.225.225,0,0,1,.077.172.229.229,0,0,1-.059.161A.22.22,0,0,1,273.226,452.676Zm-2.495-4.057a2.194,2.194,0,0,0,1.146-.309,2.339,2.339,0,0,0,.822-.823,2.282,2.282,0,0,0,0-2.289,2.308,2.308,0,0,0-.825-.82,2.213,2.213,0,0,0-1.141-.3h-3.112v4.544Z" transform="translate(-200.058 -443.576)"/>
      <path id="Path_1335" data-name="Path 1335" d="M285.987,452.682a4.363,4.363,0,0,1-1.824-.375,4.568,4.568,0,0,1-1.425-1,4.632,4.632,0,0,1-.933-1.4,4.6,4.6,0,0,1,.015-3.585,4.571,4.571,0,0,1,1-1.426,4.668,4.668,0,0,1,1.4-.935,4.6,4.6,0,0,1,3.584.015,4.506,4.506,0,0,1,1.423,1,4.778,4.778,0,0,1,.938,1.4,4.468,4.468,0,0,1,.35,1.764,4.375,4.375,0,0,1-.371,1.821,4.6,4.6,0,0,1-2.4,2.361A4.354,4.354,0,0,1,285.987,452.682Zm0-.469a3.98,3.98,0,0,0,1.621-.327,4.05,4.05,0,0,0,1.292-.894,4.1,4.1,0,0,0,.853-1.3,4.052,4.052,0,0,0-.917-4.464,4.124,4.124,0,0,0-1.3-.849,4.039,4.039,0,0,0-4.461.918,4.167,4.167,0,0,0-.852,1.3,4.112,4.112,0,0,0,.023,3.172,4.043,4.043,0,0,0,.9,1.292,4.132,4.132,0,0,0,1.3.849A4.014,4.014,0,0,0,285.987,452.213Z" transform="translate(-206.573 -443.576)"/>
      <path id="Path_1336" data-name="Path 1336" d="M301.577,452.682a.233.233,0,0,1-.231-.232v-8.613a.233.233,0,0,1,.231-.231h3.344a2.651,2.651,0,0,1,1.387.371,2.792,2.792,0,0,1,.986.991,2.787,2.787,0,0,1,0,2.762,2.761,2.761,0,0,1-.992.986,2.683,2.683,0,0,1-1.378.365h-3.112v3.368a.233.233,0,0,1-.232.232Zm3.344-4.063a2.188,2.188,0,0,0,1.149-.309,2.352,2.352,0,0,0,.82-.823,2.3,2.3,0,0,0,0-2.289,2.285,2.285,0,0,0-.823-.82,2.221,2.221,0,0,0-1.146-.3h-3.112v4.544Z" transform="translate(-215.637 -443.576)"/>
      <path id="Path_1337" data-name="Path 1337" d="M321.365,452.676h-4.954a.226.226,0,0,1-.163-.065.22.22,0,0,1-.069-.167v-8.607a.219.219,0,0,1,.069-.166.227.227,0,0,1,.163-.065h4.954a.238.238,0,0,1,.167.065.215.215,0,0,1,.071.166.225.225,0,0,1-.068.164.233.233,0,0,1-.17.068h-4.722v3.57H320.4a.224.224,0,0,1,.164.069.23.23,0,0,1,.068.169.232.232,0,0,1-.232.232h-3.754v4.1h4.722a.231.231,0,0,1,.17.069.222.222,0,0,1,.068.163.217.217,0,0,1-.071.167A.238.238,0,0,1,321.365,452.676Z" transform="translate(-222.396 -443.576)"/>
      <path id="Path_1338" data-name="Path 1338" d="M335.453,452.676h-.018a.246.246,0,0,1-.149-.053l-4.1-3.54h-1.343v3.362a.222.222,0,0,1-.068.167.235.235,0,0,1-.4-.167v-8.607a.233.233,0,0,1,.065-.16.222.222,0,0,1,.173-.071h3.344a2.655,2.655,0,0,1,1.381.368,2.771,2.771,0,0,1,.989.992,2.77,2.77,0,0,1-.005,2.771,2.788,2.788,0,0,1-1,.984,2.664,2.664,0,0,1-1.369.362H331.9l3.689,3.19a.227.227,0,0,1,.077.172.229.229,0,0,1-.059.161A.221.221,0,0,1,335.453,452.676Zm-2.495-4.057a2.194,2.194,0,0,0,1.146-.309,2.341,2.341,0,0,0,.823-.823,2.286,2.286,0,0,0,0-2.289,2.309,2.309,0,0,0-.826-.82,2.212,2.212,0,0,0-1.141-.3h-3.112v4.544Z" transform="translate(-228.408 -443.576)"/>
      <path id="Path_1339" data-name="Path 1339" d="M345.973,452.682a.233.233,0,0,1-.231-.232v-8.375h-2.489a.216.216,0,0,1-.166-.071.239.239,0,0,1-.065-.167.23.23,0,0,1,.065-.16.215.215,0
,0,1,.166-.071h5.441a.233.233,0,0,1,.232.231.233.233,0,0,1-.069.167.218.218,0,0,1-.163.071H346.2v8.375a.233.233,0,0,1-.232.232Z" transform="translate(-234.624 -443.576)"/>
      <path id="Path_1340" data-name="Path 1340" d="M357.334,452.676a.227.227,0,0,1-.163-.065.22.22,0,0,1-.069-.167v-8.607a.219.219,0,0,1,.069-.166.227.227,0,0,1,.163-.065.222.222,0,0,1,.166.068.229.229,0,0,1,.065.163v8.607a.227.227,0,0,1-.065.163A.22.22,0,0,1,357.334,452.676Z" transform="translate(-241.039 -443.576)"/>
      <path id="Path_1341" data-name="Path 1341" d="M366.375,452.676h-4.954a.227.227,0,0,1-.163-.065.22.22,0,0,1-.069-.167v-8.607a.219.219,0,0,1,.069-.166.227.227,0,0,1,.163-.065h4.954a.239.239,0,0,1,.167.065.215.215,0,0,1,.071.166.223.223,0,0,1-.069.164.231.231,0,0,1-.169.068h-4.722v3.57h3.754a.223.223,0,0,1,.163.069.23.23,0,0,1,.068.169.232.232,0,0,1-.231.232h-3.754v4.1h4.722a.23.23,0,0,1,.169.069.221.221,0,0,1,.069.163.217.217,0,0,1-.071.167A.239.239,0,0,1,366.375,452.676Z" transform="translate(-242.901 -443.576)"/>
      <path id="Path_1342" data-name="Path 1342" d="M376.543,452.686a3.507,3.507,0,0,1-1.639-.356,2.458,2.458,0,0,1-1.027-.957.266.266,0,0,1-.03-.119.392.392,0,0,1,.015-.089.2.2,0,0,1,.1-.113.27.27,0,0,1,.119-.03.345.345,0,0,1,.089.018.2.2,0,0,1,.107.1,2,2,0,0,0,.87.793,3.075,3.075,0,0,0,1.4.294,2.326,2.326,0,0,0,1.584-.567,1.863,1.863,0,0,0,.457-2.242,1.517,1.517,0,0,0-.517-.543,2.837,2.837,0,0,0-.728-.324,7.807,7.807,0,0,0-.843-.2q-.5-.1-.977-.232a3.129,3.129,0,0,1-.849-.383,1.775,1.775,0,0,1-.6-.671,2.378,2.378,0,0,1-.226-1.114,2.116,2.116,0,0,1,.369-1.215,2.627,2.627,0,0,1,.983-.864,2.877,2.877,0,0,1,1.351-.321,2.8,2.8,0,0,1,1.438.369,2.67,2.67,0,0,1,.974.95.305.305,0,0,1,.024.113.424.424,0,0,1-.015.095.2.2,0,0,1-.1.113.219.219,0,0,1-.107.03.354.354,0,0,1-.1-.018.223.223,0,0,1-.113-.1,2.093,2.093,0,0,0-.811-.787,2.572,2.572,0,0,0-2.331-.03,2.149,2.149,0,0,0-.8.7,1.678,1.678,0,0,0-.3.965,1.776,1.776,0,0,0,.193.882,1.5,1.5,0,0,0,.513.543,2.8,2.8,0,0,0,.728.318q.407.115.847.2.5.095.971.229a3.111,3.111,0,0,1,.85.377,1.753,1.753,0,0,1,.6.668,2.393,2.393,0,0,1,.226,1.12,2.1,2.1,0,0,1-.22.959,2.47,2.47,0,0,1-.594.76,2.792,2.792,0,0,1-.843.5A3.01,3.01,0,0,1,376.543,452.686Z" transform="translate(-248.665 -443.551)"/>
    </g>
  </g>
</svg>